<?xml version="1.0" encoding="UTF-8" standalone="no"?>
<svg
   xmlns:dc="http://purl.org/dc/elements/1.1/"
   xmlns:cc="http://creativecommons.org/ns#"
   xmlns:rdf="http://www.w3.org/1999/02/22-rdf-syntax-ns#"
   xmlns:svg="http://www.w3.org/2000/svg"
   xmlns="http://www.w3.org/2000/svg"
   viewBox="0 0 1061.3333 732"
   height="732"
   width="1061.3333"
   xml:space="preserve"
   id="svg2"
   version="1.1"><metadata
     id="metadata8"><rdf:RDF><cc:Work
         rdf:about=""><dc:format>image/svg+xml</dc:format><dc:type
           rdf:resource="http://purl.org/dc/dcmitype/StillImage" /></cc:Work></rdf:RDF></metadata><defs
     id="defs6"><clipPath
       id="clipPath18"
       clipPathUnits="userSpaceOnUse"><path
         id="path16"
         d="M 0,549 H 796 V 0 H 0 Z" /></clipPath></defs><g
     transform="matrix(1.3333333,0,0,-1.3333333,0,732)"
     id="g10"><g
       id="g12"><g
         clip-path="url(#clipPath18)"
         id="g14"><g
           transform="translate(469.3984,227.4736)"
           id="g20"><path
             id="path22"
             style="fill:#000000;fill-opacity:1;fill-rule:nonzero;stroke:none"
             d="m 0,0 c -11.179,-21.986 -25.077,-42.076 -43.045,-59.04 -16.995,-16.046 -34.159,-31.95 -51.949,-47.093 -6.549,-5.574 -15.007,-8.976 -22.78,-13.011 -3.935,-2.042 -7.825,0.759 -7.543,5.23 0.141,2.233 0.616,4.816 1.885,6.547 7.593,10.349 14.215,21.839 23.482,30.451 23.846,22.16 48.747,43.2 73.563,64.292 C -18.052,-5.54 -8.702,0.353 0.184,6.79 0.789,6.355 1.395,5.922 2.001,5.487 1.344,3.653 0.876,1.723 0,0 m -101,55.261 c -10.802,-12.016 -24.418,-20.149 -39.043,-26.589 -2.739,-1.206 -6.152,-1.374 -9.22,-1.235 -4.842,0.222 -6.702,3.529 -6.866,8.09 -0.595,16.559 6.587,30.083 17.339,41.716 5.454,5.902 12.307,10.566 18.83,15.378 1.309,0.964 4.587,0.885 5.94,-0.104 8.265,-6.043 9.801,-6.246 18.899,-0.768 0.501,0.302 1.175,0.314 2.783,0.715 2.997,-14.159 0.842,-26.631 -8.662,-37.203 m 367.4,71.296 c -8.902,-2.271 -17.755,-4.777 -26.512,-7.56 C 211.61,110.011 183.328,101.035 155.156,91.729 133.93,84.716 112.864,77.216 91.74,69.897 86.639,68.13 81.328,66.728 76.559,64.288 60.443,56.047 44.528,47.415 28.221,38.765 c -0.092,0.934 -0.349,1.738 -0.217,2.472 2.266,12.665 -0.738,24.498 -5.761,35.968 -4.015,9.17 -10.598,14.859 -21.124,15.076 -2.342,0.048 -4.671,0.688 -8.226,1.247 1.869,2.495 3.06,3.849 3.988,5.364 5.219,8.519 11.052,16.751 15.366,25.711 4.638,9.632 -0.333,19.237 -10.839,20.902 -6.174,0.978 -13.063,0.408 -19.109,-1.304 -21.863,-6.192 -42.299,-15.899 -61.31,-28.274 -6.545,-4.26 -11.518,-3.86 -17.385,0.547 -6.92,5.197 -10.934,3.724 -15.73,-3.351 -2.511,-3.702 -6.382,-7.005 -10.369,-9.098 -26.738,-14.033 -43.343,-35.111 -45.959,-65.733 -1.337,-15.642 11.583,-26.339 26.794,-22.438 14.694,3.768 26.782,12.597 38.371,21.91 17.948,14.423 26.154,32.708 20.91,55.939 -0.29,1.284 -1.258,3.563 0.22,4.443 0.125,0.075 6.911,4.978 7.711,5.558 0.047,0.034 0.068,0.158 0.115,0.125 0.069,-0.049 6.466,4.695 7.607,5.634 6.498,5.342 21.846,13.084 35.568,19.677 7.562,3.632 16.232,5.547 24.616,6.719 8.454,1.183 10.868,-2.299 6.473,-9.815 -5.749,-9.833 -12.498,-19.232 -19.891,-27.903 -5.771,-6.771 -13.158,-12.17 -19.873,-18.127 -3.115,-2.765 -3.952,-5.832 -1.549,-9.425 2.605,-3.89 5.971,-3.126 9.388,-1.345 1.293,0.674 2.506,1.528 3.68,2.401 8.223,6.109 17.432,8.528 27.663,8.349 6.538,-0.113 9.75,-3.258 12.013,-8.935 4.174,-10.472 4.437,-21.3 3.135,-32.147 -0.82,-6.834 -3.29,-12.808 -9.733,-17.33 -18.815,-13.205 -37.371,-26.817 -55.481,-40.972 -13.947,-10.9 -27.238,-22.665 -40.495,-34.414 -10.015,-8.874 -20.181,-17.738 -29.041,-27.707 -7.711,-8.676 -13.737,-18.605 -16.156,-30.674 -2.736,-13.645 5.828,-18.701 16.41,-19.313 7.703,-0.445 13.245,4.198 19.746,6.84 11.011,4.475 28.541,19.345 28.597,19.277 5.047,5.52 7.714,7.954 7.946,8.187 15.803,13.986 30.73,28.461 44.542,44.613 15.837,18.52 26.932,39.6 37.722,61.047 2.595,5.16 4.137,12.028 8.355,14.973 12.791,8.935 26.099,17.538 40.229,24.049 22.163,10.214 44.867,19.447 67.877,27.579 32.51,11.493 65.557,21.458 98.273,32.381 11.895,3.972 23.544,8.704 35.183,13.395 1.725,0.695 2.77,3.078 4.131,4.679 -2.079,0.387 -4.344,1.509 -6.202,1.035" /></g><g
           transform="translate(392.001,409.5723)"
           id="g24"><path
             id="path26"
             style="fill:#000000;fill-opacity:1;fill-rule:nonzero;stroke:none"
             d="m 0,0 c 10.297,4.059 20.89,7.362 31.237,11.302 2.463,0.937 7.342,1.98 6.701,4.626 -0.613,2.525 -5.392,1.596 -7.677,0.948 C 16.991,13.112 3.582,9.604 -9.289,4.715 c -36.885,-14.01 -66.349,-39.118 -93.129,-66.891 -25.088,-26.016 -47.831,-54.297 -71.535,-81.641 -6.004,-6.927 -11.738,-14.087 -17.597,-21.141 -0.732,0.418 -1.464,0.836 -2.196,1.253 8.167,20.085 16.291,40.186 24.51,60.251 12.224,29.847 29.984,56.466 48.694,82.467 6.957,9.667 15.253,18.368 22.258,28.005 6.014,8.273 11.282,17.122 16.44,25.972 2.662,4.57 0.972,9.852 -3.075,11.252 -4.946,1.71 -6.667,-1.692 -8.979,-5.397 -7.726,-12.377 -14.6,-25.698 -24.34,-36.33 -32.36,-35.328 -65.823,-69.643 -98.885,-104.327 -0.994,-1.042 -2.232,-1.854 -4.481,-3.692 7.618,15.868 13.659,30.451 14.369,46.757 0.504,11.559 0.052,22.886 -7.937,32.024 -3.855,4.411 -9.074,7.63 -13.94,11.606 -0.042,-0.104 0.117,0.502 0.425,1.017 1.915,3.195 5.009,6.562 0.69,9.858 -3.945,3.011 -6.479,-0.537 -9.056,-2.904 -6.312,-5.797 -12.523,-11.5 -21.1,-14.217 -4.207,-1.333 -7.862,-4.584 -11.581,-7.228 -3.159,-2.245 -5.565,-5.774 -2.485,-8.95 1.96,-2.021 6.583,-3.432 9.086,-2.534 4.961,1.778 9.534,5.005 13.817,8.232 13.483,10.16 28.783,3.757 30.742,-14.899 1.364,-12.996 -1.164,-25.694 -5.972,-37.505 -11.304,-27.772 -26.224,-53.678 -43.141,-78.43 -7.073,-10.346 -14.192,-20.667 -20.982,-31.198 -9.06,-14.052 -18.119,-28.121 -26.62,-42.513 -7.544,-12.773 -14.522,-25.895 -21.343,-39.075 -2.526,-4.879 -0.53,-10.312 3.57,-11.812 5.298,-1.939 7.352,1.71 9.545,5.626 15.068,26.908 30.066,53.86 45.528,80.542 6.413,11.066 13.467,21.829 21.013,32.156 13.421,18.364 26.873,36.763 41.395,54.247 10.913,13.141 23.499,24.895 35.383,37.225 7.331,7.606 14.74,15.136 22.114,22.699 -1.287,-2.97 -2.383,-6.045 -3.936,-8.868 -18.817,-34.215 -33.709,-70.073 -45.458,-107.289 -4.714,-14.934 -9.86,-29.735 -15.001,-44.529 -2.743,-7.889 -5.968,-15.61 -8.833,-23.459 -1.759,-4.818 -0.493,-9.085 4.291,-10.988 4.944,-1.966 7.93,1.523 9.699,5.616 1.821,4.213 2.926,8.733 4.659,12.989 4.959,12.177 8.625,25.192 15.469,36.22 10.765,17.351 23.561,33.46 35.788,49.879 9.244,12.416 18.544,24.83 28.517,36.655 21.212,25.149 44.005,48.804 69.555,69.634 C -43.974,-23.135 -23.388,-9.217 0,0" /></g></g></g></g></svg>